HIERARCHY
ROOT hip
{
	OFFSET 0.000000 0.000000 0.000000 
	CHANNELS 6 Xposition Yposition Zposition Xrotation Zrotation Yrotation
	JOINT abdomen
	{
		OFFSET 0.000000 3.402643 0.000000 
		CHANNELS 3 Xrotation Zrotation Yrotation
		JOINT chest
		{
			OFFSET 0.000000 8.438565 -0.680529 
			CHANNELS 3 Xrotation Zrotation Yrotation
			JOINT neck
			{
				OFFSET 0.000000 10.207942 -0.272212 
				CHANNELS 3 Xrotation Zrotation Yrotation
				JOINT head
				{
					OFFSET 0.000000 3.130431 0.000000 
					CHANNELS 3 Xrotation Zrotation Yrotation
					End Site
					{
						OFFSET 0.000000 3.130435 0.000000 
					}
				}
			}
			JOINT lCollar
			{
				OFFSET 3.470700 6.669187 -0.816635 
				CHANNELS 3 Yrotation Zrotation Xrotation
				JOINT lShldr
				{
					OFFSET 3.198488 0.000000 0.000000 
					CHANNELS 3 Zrotation Yrotation Xrotation
					JOINT lForeArm
					{
						OFFSET 10.139888 0.000000 0.000000 
						CHANNELS 3 Yrotation Zrotation Xrotation
						JOINT lHand
						{
							OFFSET 8.370511 0.000000 0.000000 
							CHANNELS 3 Zrotation Yrotation Xrotation
							End Site
							{
								OFFSET 4.083176 0.000000 0.000000 
							}
						}
					}
				}
			}
			JOINT rCollar
			{
				OFFSET -3.470700 6.669187 -0.816635 
				CHANNELS 3 Yrotation Zrotation Xrotation
				JOINT rShldr
				{
					OFFSET -3.198488 0.000000 0.000000 
					CHANNELS 3 Zrotation Yrotation Xrotation
					JOINT rForeArm
					{
						OFFSET -10.139888 0.000000 0.000000 
						CHANNELS 3 Yrotation Zrotation Xrotation
						JOINT rHand
						{
							OFFSET -8.370511 0.000000 0.000000 
							CHANNELS 3 Zrotation Yrotation Xrotation
							End Site
							{
								OFFSET -4.083176 0.000000 0.000000 
							}
						}
					}
				}
			}
		}
	}
	JOINT lThigh
	{
		OFFSET 5.308129 -1.633274 1.361059 
		CHANNELS 3 Xrotation Zrotation Yrotation
		JOINT lShin
		{
			OFFSET -2.041588 -20.007561 0.000000 
			CHANNELS 3 Xrotation Zrotation Yrotation
			JOINT lFoot
			{
				OFFSET 0.000000 -19.190928 -1.224953 
				CHANNELS 3 Xrotation Yrotation Zrotation
				End Site
				{
					OFFSET 0.000000 -2.449906 4.627600 
				}
			}
		}
	}
	JOINT rThigh
	{
		OFFSET -5.308129 -1.633274 1.361059 
		CHANNELS 3 Xrotation Zrotation Yrotation
		JOINT rShin
		{
			OFFSET 2.041588 -20.007561 0.000000 
			CHANNELS 3 Xrotation Zrotation Yrotation
			JOINT rFoot
			{
				OFFSET 0.000000 -19.190928 -1.224953 
				CHANNELS 3 Xrotation Yrotation Zrotation
				End Site
				{
					OFFSET 0.000000 -2.449906 4.627600 
				}
			}
		}
	}
}
MOTION
Frames: 16
Frame Time: 0.016667
52.991066 46.946236 6.597712 -5.157920 6.273530 -97.019997 -18.876900 -0.663876 -3.022960 20.899300 3.994070 -1.577070 7.160720 3.846960 -10.145600 9.066330 6.196070 -4.813330 2.000000 -2.000000 0.000000 -84.814301 24.903999 135.348999 43.193802 -0.314521 0.093635 -179.917007 -179.895996 2.863480 -2.000000 2.000000 0.000000 81.159302 -20.679800 125.555000 -72.988800 0.254847 0.130742 -0.142883 0.143395 159.729004 -15.665201 -5.947521 13.258507 24.585470 2.270114 2.106254 -20.365110 7.376059 5.311807 -16.748058 -5.241731 10.965090 29.374283 -2.889798 -2.153752 -12.499503 -13.128132 -1.346511 
53.105423 46.866440 6.648467 -4.735400 6.267770 -98.310204 -18.713100 -0.690543 -2.899130 20.928499 3.554610 -1.519360 7.477020 3.963160 -9.989200 9.272130 6.154760 -4.706870 2.000000 -2.000000 0.000000 -85.138702 24.066799 136.908997 43.047298 -0.314760 0.093380 -179.921005 -179.901001 5.060730 -2.000000 2.000000 0.000000 81.854500 -19.822001 126.689003 -72.695801 0.255515 0.130536 -0.141008 0.142438 160.481003 -16.723316 -4.854903 14.440048 26.904675 2.285408 2.269233 -20.425104 6.612284 4.924797 -16.868307 -5.112831 10.450498 28.768965 -2.849640 -2.133165 -13.070063 -10.599079 -0.866265 
53.195744 46.826294 6.757401 -4.897340 5.701900 -99.774399 -18.677000 -0.641490 -2.740310 20.507700 3.623050 -1.458160 6.989340 3.764740 -9.976180 9.075580 6.147320 -4.689600 2.000000 -2.000000 0.000000 -85.931503 23.522200 138.179993 43.379299 -0.314218 0.093957 0.073591 -0.101703 -171.882996 -2.000000 2.000000 0.000000 81.730598 -19.375200 128.345993 -72.412598 0.256160 0.130333 -0.140062 0.141944 160.862000 -17.352348 -4.512987 15.194638 29.479868 2.273358 2.439687 -20.007452 5.697352 4.400703 -16.844522 -5.567493 10.238321 28.806385 -2.869802 -2.137514 -13.129463 -8.525674 -0.317932 
53.285839 46.743668 6.893734 -4.444850 5.569240 -101.067001 -18.553900 -0.698915 -2.504050 20.400200 3.027330 -1.355910 6.750890 3.861720 -10.065500 9.015980 6.089620 -4.710720 2.000000 -2.000000 0.000000 -85.720901 22.912001 140.992996 44.111801 -0.313009 0.095220 0.082023 -0.099766 -171.042999 -2.000000 2.000000 0.000000 82.134804 -19.056000 130.367996 -72.217300 0.256604 0.130192 -0.139869 0.141842 160.940002 -18.555082 -3.359733 15.542510 32.710358 2.252120 2.612738 -18.695658 5.825776 4.216148 -16.992802 -5.486077 9.073689 28.414455 -2.856099 -2.120429 -12.475920 -6.616958 0.209593 
53.385372 46.616127 7.003580 -3.470940 5.127350 -102.732002 -18.274900 -0.319003 -2.268560 20.312201 2.939430 -1.194160 6.676070 4.083100 -9.934040 9.046680 6.196300 -4.629890 2.000000 -2.000000 0.000000 -86.241203 21.900700 143.257004 45.049301 -0.311439 0.096813 0.080433 -0.097374 -170.016998 -2.000000 2.000000 0.000000 82.118401 -18.209499 132.322998 -71.777901 0.257601 0.129868 -0.137870 0.140767 161.750000 -19.497124 -1.418729 15.601053 36.556614 2.229096 2.808671 -17.795488 3.384845 3.060774 -16.610605 -4.495043 9.386386 27.926323 -2.817365 -2.089194 -12.070723 -5.984939 0.433955 
53.468613 46.624104 7.128107 -3.342030 4.845300 -104.277000 -18.270100 -0.405474 -1.859760 20.097099 2.792880 -1.018460 6.198230 3.992530 -10.032100 8.740480 6.043990 -4.675370 2.000000 -2.000000 0.000000 -85.980301 21.172701 145.533997 46.240700 -0.309407 0.098800 0.078051 -0.093607 -168.425995 -2.000000 2.000000 0.000000 82.755798 -17.811600 133.873001 -71.445801 0.258353 0.129618 -0.136196 0.139839 162.434006 -20.322287 -0.351137 15.385247 39.414364 2.158753 2.967703 -16.058996 1.629836 2.253102 -16.759413 -4.358424 10.082146 27.809032 -2.812650 -2.089823 -12.059017 -4.749145 0.777802 
53.509281 46.632732 7.280718 -3.135160 4.612260 -105.702003 -18.085501 -0.259527 -1.803840 20.233900 2.988230 -0.983597 6.355460 4.204210 -9.976680 8.868890 6.110730 -4.636730 2.000000 -2.000000 0.000000 -86.402802 20.327700 147.860001 47.871601 -0.306558 0.101451 0.076935 -0.081992 -167.654007 -2.000000 2.000000 0.000000 82.446800 -16.926701 136.100998 -70.478996 0.260534 0.128865 -0.132599 0.137755 163.917999 -20.942417 0.579042 14.035965 41.739117 2.120062 3.076845 -13.639484 -2.020578 0.957360 -16.926888 -4.264997 10.350104 27.691330 -2.808083 -2.080808 -11.898043 -3.509372 1.093299 
53.572075 46.676487 7.456483 -2.909270 4.476670 -107.121002 -18.058201 -0.107353 -1.647970 20.224100 3.193310 -0.887636 6.756910 4.696880 -9.947540 9.047590 6.274120 -4.623090 2.000000 -2.000000 0.000000 -86.542503 19.669201 150.556000 49.717300 -0.303245 0.104352 0.075802 -0.080056 -166.852997 -2.000000 2.000000 0.000000 82.098297 -16.188200 138.173004 -69.473198 0.262789 0.128043 -0.130775 0.136649 164.679993 -21.434439 1.468391 11.919007 43.649349 2.113558 3.146993 -12.191878 -6.185355 -0.240221 -16.979078 -3.855110 11.891848 27.427582 -2.791524 -2.071186 -11.641715 -3.553015 1.154618 
53.566460 46.649326 7.659938 -3.229590 3.753810 -108.580002 -17.893299 -0.561307 -1.469220 20.263300 2.900350 -0.874199 7.573970 5.251270 -9.601830 9.363530 6.396780 -4.460020 2.000000 -2.000000 0.000000 -85.657501 19.353800 153.845001 51.963402 -0.299089 0.107735 0.076531 -0.081309 -167.371002 -2.000000 2.000000 0.000000 82.444000 -15.538600 140.779007 -68.877502 0.264117 0.127538 -0.129683 0.135971 165.139008 -21.234535 1.477864 10.764941 44.764545 2.128130 3.175214 -11.733727 -6.427542 -0.259441 -16.722424 -4.236259 13.346141 27.470978 -2.843378 -2.063078 -11.681993 -3.571757 1.209379 
53.514671 46.711102 7.962589 -3.491900 3.236180 -109.679001 -17.963400 -0.894736 -1.330380 20.028799 2.558490 -0.863385 8.161830 5.630100 -9.528560 9.601010 6.520150 -4.440090 2.000000 -2.000000 0.000000 -85.123100 19.066999 156.677002 54.014198 -0.295182 0.110680 0.076117 -0.080601 -167.078003 -2.000000 2.000000 0.000000 82.369797 -15.397000 143.406006 -68.213402 0.265592 0.126958 -0.129128 0.135622 165.373001 -21.013908 1.251000 8.261335 45.469414 2.131144 3.199090 -11.632748 -5.089659 0.047955 -16.498049 -5.123661 12.869105 27.081623 -2.891149 -2.030546 -11.631335 -2.107513 1.520095 
53.475468 46.781502 8.270452 -4.526580 2.716120 -111.094002 -18.151699 -1.228850 -1.137500 19.891800 2.792780 -0.833139 7.933100 5.353180 -9.470010 9.393500 6.435300 -4.433600 2.000000 -2.000000 0.000000 -84.685699 18.681900 159.188004 56.113800 -0.291075 0.113549 0.075273 -0.079130 -166.472000 -2.000000 2.000000 0.000000 82.051201 -15.324000 146.020996 -67.588402 0.266974 0.126397 -0.126463 0.133901 166.505997 -20.899343 0.457735 6.583654 45.623470 2.172399 3.192328 -11.826410 -2.160355 0.805769 -16.579006 -6.574828 13.381549 26.414433 -2.948416 -1.964130 -11.286170 -0.920169 1.789286 
53.436035 46.816898 8.472829 -3.196860 2.681370 -112.689003 -18.249500 -0.910874 -0.984087 19.657301 2.519220 -0.703556 8.005810 5.528960 -9.046050 9.346220 6.581760 -4.248680 2.000000 -2.000000 0.000000 -84.198997 18.559299 161.112000 58.691898 -0.285893 0.116862 0.073360 -0.075657 -165.056000 -2.000000 2.000000 0.000000 81.829803 -15.328800 148.423004 -67.100098 0.268049 0.125948 -0.121261 0.140084 168.761993 -20.417858 2.579748 4.566597 46.085567 2.285488 3.159960 -12.695347 0.394563 1.586928 -15.732224 -5.025327 15.479927 25.182838 -2.947896 -1.892700 -10.777059 -1.613763 1.774764 
53.325607 46.823460 8.828288 -2.786170 2.643360 -113.898003 -18.053699 -1.059120 -1.101790 20.068001 2.060470 -0.769509 8.042630 5.057590 -8.882540 9.372620 6.338320 -4.151860 2.000000 -2.000000 0.000000 -83.525902 17.821100 162.867996 60.723202 -0.281708 0.119306 0.072581 -0.074182 -164.460999 -2.000000 2.000000 0.000000 81.627701 -14.797200 151.091003 -66.943901 0.268392 0.125803 -0.117894 0.127834 170.255997 -19.913071 3.254450 2.194766 45.802326 2.413221 3.101111 -13.522844 3.503068 2.493105 -15.342750 -5.006654 15.815959 24.046173 -2.963134 -1.803625 -10.543816 -0.829839 1.943283 
53.239555 46.833244 9.087138 -2.355620 2.419830 -115.929001 -18.105499 -0.699701 -0.448718 19.960501 2.304560 -0.404814 8.375760 4.727090 -8.944810 9.478500 6.161990 -4.185910 2.000000 -2.000000 0.000000 -82.531303 17.124599 165.740997 62.627499 -0.277708 0.121462 0.072493 -0.074012 -164.391998 -2.000000 2.000000 0.000000 81.336304 -14.468400 152.604996 -66.201698 0.270017 0.125098 -0.114786 0.125416 171.662003 -18.978588 4.291366 0.724646 44.937096 2.589575 3.003352 -14.608189 5.286870 3.117026 -14.931362 -4.553753 18.281254 23.081881 -2.947980 -1.764494 -10.217283 -1.643815 1.840569 
53.130924 46.770821 9.444497 -1.798530 2.459730 -117.283997 -18.124701 -0.622976 -0.494291 20.107100 2.138610 -0.417154 8.669980 4.637090 -8.525160 9.576710 6.160780 -3.989880 2.000000 -2.000000 0.000000 -81.936096 16.639900 167.285004 64.766197 -0.273134 0.123722 0.071942 -0.072943 -163.962997 -2.000000 2.000000 0.000000 81.133003 -13.974300 154.459000 -65.801300 0.270890 0.124710 179.888000 179.876999 -6.960720 -18.114059 5.236670 -1.520465 43.637524 2.793074 2.881341 -15.387127 5.837708 3.298430 -14.789673 -4.344700 18.642975 22.377974 -2.963056 -1.698495 -9.907055 -0.960457 1.988866 
52.997131 46.729378 9.862160 -1.632100 2.235420 -118.500999 -18.094999 -0.388967 -0.509350 20.263399 2.509730 -0.383923 8.449130 3.873900 -8.429100 9.406240 5.871160 -3.947170 2.000000 -2.000000 0.000000 -81.662903 15.755400 169.074005 66.484901 -0.269398 0.125414 0.071842 -0.072748 -163.884995 -2.000000 2.000000 0.000000 80.480301 -13.655800 156.197998 -65.586502 0.271357 0.124499 179.889999 179.869003 -6.150160 -16.997023 5.451097 -3.824568 41.989235 3.044085 2.737053 -15.903705 5.592939 3.099363 -14.800523 -4.881521 17.911734 21.942986 -2.963714 -1.664977 -9.807097 0.700285 2.236560 
